<svg width="324" height="67" viewBox="0 0 324 67" fill="none" xmlns="http://www.w3.org/2000/svg">
<path d="M84.0052 33.3409C84.0052 40.0409 88.6633 44.7309 95.2676 44.7309C100.596 44.7309 104.616 41.7638 105.892 36.9143H99.8938C98.9686 38.8286 97.2776 39.7857 95.2038 39.7857C91.8538 39.7857 89.5567 37.2971 89.5567 33.3409C89.5567 29.3847 91.8538 26.8962 95.2038 26.8962C97.2776 26.8962 98.9686 27.8533 99.8938 29.7676H105.892C104.616 24.9181 100.596 21.919 95.2676 21.919C88.6633 21.919 84.0052 26.6409 84.0052 33.3409ZM106.872 35.6381C106.872 41.2533 110.35 44.8266 114.689 44.8266C117.337 44.8266 119.219 43.6143 120.208 42.0509V44.5714H125.664V26.7686H120.208V29.289C119.251 27.7257 117.369 26.5133 114.721 26.5133C110.35 26.5133 106.872 30.0228 106.872 35.6381ZM120.208 35.67C120.208 38.5095 118.39 40.0728 116.316 40.0728C114.274 40.0728 112.423 38.4776 112.423 35.6381C112.423 32.7986 114.274 31.2671 116.316 31.2671C118.39 31.2671 120.208 32.8305 120.208 35.67ZM142.788 39.4028C142.692 32.7666 133.057 34.7766 133.057 31.9371C133.057 31.0757 133.758 30.5652 135.035 30.5652C136.566 30.5652 137.491 31.3628 137.651 32.5752H142.692C142.341 29.0657 139.788 26.5133 135.194 26.5133C130.536 26.5133 127.952 29.0019 127.952 32.0328C127.952 38.5733 137.651 36.4995 137.651 39.3709C137.651 40.1686 136.917 40.8066 135.513 40.8066C134.014 40.8066 132.897 39.9771 132.769 38.7328H127.378C127.633 42.1786 130.823 44.8266 135.577 44.8266C140.044 44.8266 142.788 42.4976 142.788 39.4028ZM144.849 44.5714H150.305V26.7686H144.849V44.5714ZM147.593 24.9181C149.507 24.9181 150.815 23.61 150.815 21.9828C150.815 20.3238 149.507 19.0157 147.593 19.0157C145.647 19.0157 144.339 20.3238 144.339 21.9828C144.339 23.61 145.647 24.9181 147.593 24.9181ZM170.402 35.67C170.402 30.0228 166.382 26.5133 161.15 26.5133C155.949 26.5133 151.898 30.0228 151.898 35.67C151.898 41.3171 155.854 44.8266 161.086 44.8266C166.319 44.8266 170.402 41.3171 170.402 35.67ZM157.449 35.67C157.449 32.639 159.172 31.2352 161.15 31.2352C163.064 31.2352 164.851 32.639 164.851 35.67C164.851 38.669 163.032 40.1047 161.086 40.1047C159.108 40.1047 157.449 38.669 157.449 35.67ZM177.505 22.1743V44.5714H190.108V40.36H182.961V22.1743H177.505ZM209.013 26.7686H203.558V36.4357C203.558 38.8605 202.218 40.2005 200.112 40.2005C198.07 40.2005 196.698 38.8605 196.698 36.4357V26.7686H191.274V37.1695C191.274 41.9233 194.05 44.7628 198.166 44.7628C200.559 44.7628 202.473 43.6781 203.558 42.1466V44.5714H209.013V26.7686ZM210.571 35.67C210.571 41.3171 214.272 44.8266 219.505 44.8266C223.971 44.8266 227.13 42.2424 228.055 38.1266H222.248C221.77 39.4347 220.908 40.1686 219.409 40.1686C217.463 40.1686 216.123 38.6371 216.123 35.67C216.123 32.7028 217.463 31.1714 219.409 31.1714C220.908 31.1714 221.802 31.969 222.248 33.2133H228.055C227.13 28.97 223.971 26.5133 219.505 26.5133C214.272 26.5133 210.571 30.0547 210.571 35.67ZM229.697 44.5714H235.153V37.1057L240.577 44.5714H247.34L239.875 35.7019L247.277 26.7686H240.545L235.153 34.0109V20.9619H229.697V44.5714ZM256.343 37.9033L252.227 26.7686H246.133L253.376 43.9652L249.292 53.0262H255.162L266.329 26.7686H260.427L256.343 37.9033ZM284.858 37.7438C284.858 39.339 283.805 40.1686 281.986 40.1686H277.966V35.2233H281.922C283.741 35.2233 284.858 36.1486 284.858 37.7438ZM284.315 28.9062C284.315 30.4376 283.326 31.2352 281.54 31.2352H277.966V26.5452H281.54C283.326 26.5452 284.315 27.3747 284.315 28.9062ZM290.377 38.4776C290.377 35.9252 288.686 33.6281 286.07 33.0857C288.24 32.4476 289.867 30.6928 289.867 27.9809C289.867 24.4395 287.155 22.1743 282.592 22.1743H272.511V44.5714H282.943C287.665 44.5714 290.377 42.1786 290.377 38.4776ZM300.114 30.8843C301.932 30.8843 303.464 32.0009 303.464 33.9471H296.636C296.955 31.969 298.327 30.8843 300.114 30.8843ZM308.632 38.669H302.826C302.379 39.6262 301.518 40.3919 299.986 40.3919C298.232 40.3919 296.796 39.3071 296.604 36.9781H308.952C309.015 36.4357 309.047 35.8933 309.047 35.3828C309.047 29.959 305.378 26.5133 300.178 26.5133C294.882 26.5133 291.181 30.0228 291.181 35.67C291.181 41.3171 294.945 44.8266 300.178 44.8266C304.612 44.8266 307.771 42.1466 308.632 38.669ZM311.511 38.3819C311.511 43.0081 314.095 44.5714 317.796 44.5714H320.572V39.9452H318.625C317.413 39.9452 316.966 39.4986 316.966 38.4457V31.299H320.54V26.7686H316.966V22.4295H311.511V26.7686H309.341V31.299H311.511V38.3819Z" fill="white"/>
<path d="M33.5 5.58337C18.09 5.58337 5.58337 18.09 5.58337 33.5C5.58337 48.91 18.09 61.4167 33.5 61.4167C48.91 61.4167 61.4167 48.91 61.4167 33.5C61.4167 18.09 48.91 5.58337 33.5 5.58337ZM29.9267 43.0196C29.0055 44.4992 27.3863 45.3925 25.6275 45.3925H17.9784C17.7557 45.3941 17.5366 45.3365 17.3436 45.2256C17.1505 45.1147 16.9904 44.9545 16.8796 44.7613C16.7689 44.5682 16.7114 44.3491 16.7132 44.1264C16.7149 43.9038 16.7758 43.6856 16.8896 43.4942L32.5509 16.6663C32.9975 15.8846 34.1142 15.8288 34.6446 16.5546L38.9996 22.3892C40.2559 24.0642 40.3396 26.3255 39.2509 28.1121L29.9267 43.0196ZM48.9938 45.3925H38.2738C37.2967 45.3925 36.6825 44.3317 37.185 43.4663L42.545 34.533C43.0475 33.7234 44.22 33.7234 44.7225 34.533L50.0825 43.4663C50.585 44.3038 49.9709 45.3925 48.9938 45.3925Z" fill="white"/>
</svg>
